<svg width="81" height="82" viewBox="0 0 81 82" fill="none" xmlns="http://www.w3.org/2000/svg">
<path d="M25.5875 35.5363H1.5V18.0454H68.6272V35.5363H44.5397" stroke="white" stroke-width="3" stroke-linecap="round" stroke-linejoin="round"/>
<path d="M4.80884 58.6998V57.7544" stroke="white" stroke-width="3" stroke-linecap="round" stroke-linejoin="round"/>
<path d="M45.4633 68.6268H4.80884V62.9541" stroke="white" stroke-width="3" stroke-linecap="round" stroke-linejoin="round"/>
<path d="M44.5178 35.5361H65.3178V45.9361" stroke="white" stroke-width="3" stroke-linecap="round" stroke-linejoin="round"/>
<path d="M4.80884 53.027V35.5361H25.6088" stroke="white" stroke-width="3" stroke-linecap="round" stroke-linejoin="round"/>
<path d="M44.518 47.8272C41.3664 45.5298 38.2149 43.235 35.0634 40.9376C31.9119 43.235 28.7604 45.5298 25.6089 47.8272V18.0454H44.518V47.8272Z" stroke="white" stroke-width="3" stroke-linecap="round" stroke-linejoin="round"/>
<path d="M35.0629 18.0454C33.9584 9.65044 28.7928 3.19578 22.2823 1.82629C18.1525 0.956944 10.8361 1.58015 8.69323 6.72555C7.25057 10.1925 8.58226 14.6963 11.9775 18.0454" stroke="white" stroke-width="3" stroke-linecap="round" stroke-linejoin="round"/>
<path d="M35.0636 18.0456C34.9554 17.6574 33.2496 11.8998 28.238 10.738C26.4028 10.3113 22.5266 10.134 21.2644 12.5681C20.4564 14.1283 20.966 16.2823 22.4368 18.0456" stroke="white" stroke-width="3" stroke-linecap="round" stroke-linejoin="round"/>
<path d="M35.063 18.0454C36.1674 9.65044 41.333 3.19578 47.8435 1.82629C51.9734 0.956944 59.2897 1.58015 61.4326 6.72555C62.8753 10.1925 61.5436 14.6963 58.1483 18.0454" stroke="white" stroke-width="3" stroke-linecap="round" stroke-linejoin="round"/>
<path d="M35.063 18.0456C35.1712 17.6574 36.877 11.8998 41.8887 10.738C43.7238 10.3113 47.6 10.134 48.8622 12.5681C49.6702 14.1283 49.1606 16.2823 47.6898 18.0456" stroke="white" stroke-width="3" stroke-linecap="round" stroke-linejoin="round"/>
<path d="M62.9539 52.191C59.7196 48.5979 55.3769 47.0263 51.9134 48.2241C47.6666 49.6929 46.4118 54.7523 46.2386 55.4447C44.3737 62.9574 51.266 72.4998 62.9513 79.973" stroke="white" stroke-width="3" stroke-linecap="round" stroke-linejoin="round"/>
<path d="M62.9546 52.191C66.0991 48.5979 70.3212 47.0263 73.6884 48.2241C77.8172 49.6929 79.0372 54.7523 79.2056 55.4447C81.0187 62.9574 74.3179 72.4998 62.9572 79.973" stroke="white" stroke-width="3" stroke-linecap="round" stroke-linejoin="round"/>
<path d="M70.5181 52.5547C70.8662 52.5841 72.0052 52.7311 73.0049 53.7104C74.0465 54.7308 74.2525 55.9836 74.2999 56.3365" stroke="white" stroke-width="3" stroke-linecap="round" stroke-linejoin="round"/>
</svg>
