<svg width="40" height="40" viewBox="0 0 40 40" fill="none" xmlns="http://www.w3.org/2000/svg">
<path d="M20 0C31.0457 0 40 8.9543 40 20C40 31.0457 31.0457 40 20 40C8.9543 40 0 31.0457 0 20C3.22129e-07 8.9543 8.9543 3.2215e-07 20 0ZM19.999 9.33301C17.1041 9.33301 16.74 9.3457 15.6025 9.39746C14.4672 9.44948 13.6918 9.6298 13.0137 9.89355C12.3123 10.166 11.7168 10.53 11.124 11.123C10.5307 11.7159 10.1669 12.3114 9.89355 13.0127C9.62911 13.6911 9.44858 14.4665 9.39746 15.6016C9.34657 16.7393 9.33398 17.1032 9.33398 20C9.33398 22.8969 9.34591 23.2597 9.39746 24.3975C9.44969 25.5329 9.63001 26.3081 9.89355 26.9863C10.1662 27.6878 10.5309 28.2831 11.124 28.876C11.7166 29.4691 12.3117 29.834 13.0127 30.1064C13.6913 30.3702 14.4665 30.5505 15.6016 30.6025C16.7394 30.6543 17.1033 30.667 20 30.667C22.897 30.667 23.2597 30.6543 24.3975 30.6025C25.5329 30.5505 26.3087 30.3702 26.9873 30.1064C27.6886 29.834 28.2833 29.4693 28.876 28.876C29.4693 28.2831 29.8331 27.6876 30.1064 26.9863C30.3687 26.3079 30.5492 25.5326 30.6025 24.3975C30.6537 23.2597 30.667 22.8969 30.667 20C30.667 17.1032 30.6537 16.7393 30.6025 15.6016C30.5492 14.4661 30.3686 13.6909 30.1064 13.0127C29.8331 12.3113 29.4692 11.7158 28.876 11.123C28.2826 10.5297 27.6886 10.1658 26.9863 9.89355C26.3064 9.62984 25.5309 9.44945 24.3955 9.39746C23.258 9.3457 22.8956 9.33301 19.999 9.33301Z" fill="white"/>
<path d="M19.0439 11.2559C19.3277 11.2554 19.6443 11.2559 20 11.2559C22.8479 11.2559 23.1859 11.2663 24.3105 11.3174C25.3506 11.3649 25.915 11.5386 26.291 11.6846C26.7888 11.8779 27.1435 12.1091 27.5166 12.4824C27.8899 12.8557 28.1217 13.2112 28.3154 13.709C28.4614 14.0845 28.6353 14.6489 28.6826 15.6885C28.7337 16.8129 28.7451 17.1514 28.7451 19.998C28.7451 22.8444 28.7337 23.1822 28.6826 24.3066C28.6351 25.3466 28.4614 25.9116 28.3154 26.2871C28.1221 26.7847 27.8899 27.1387 27.5166 27.5117C27.1433 27.885 26.789 28.1162 26.291 28.3096C25.9155 28.4562 25.3505 28.6302 24.3105 28.6777C23.1862 28.7288 22.8479 28.7393 20 28.7393C17.1524 28.7393 16.8146 28.7288 15.6904 28.6777C14.6504 28.6297 14.0852 28.4556 13.709 28.3096C13.2114 28.1163 12.8557 27.885 12.4824 27.5117C12.1093 27.1385 11.8783 26.7839 11.6846 26.2861C11.5386 25.9106 11.3647 25.3457 11.3174 24.3057C11.2663 23.1813 11.2559 22.8435 11.2559 19.9951C11.2559 17.147 11.2663 16.8106 11.3174 15.6865C11.3649 14.6468 11.5386 14.0821 11.6846 13.7061C11.8779 13.2083 12.1091 12.8519 12.4824 12.4785C12.8556 12.1053 13.2114 11.8744 13.709 11.6807C14.085 11.534 14.6504 11.3603 15.6904 11.3125C16.6742 11.2681 17.0561 11.2552 19.0439 11.2529V11.2559ZM20 14.5225C16.975 14.5226 14.5225 16.975 14.5225 20C14.5225 23.025 16.975 25.4764 20 25.4766C23.0251 25.4766 25.4775 23.0251 25.4775 20C25.4775 16.9749 23.0251 14.5225 20 14.5225ZM25.5635 13.0332C24.9181 13.0986 24.4141 13.6438 24.4141 14.3066C24.4142 15.0132 24.9878 15.5859 25.6943 15.5859C26.4008 15.5858 26.9734 15.0131 26.9736 14.3066C26.9736 13.6001 26.4009 13.0265 25.6943 13.0264L25.5635 13.0332Z" fill="white"/>
<path fill-rule="evenodd" clip-rule="evenodd" d="M20.0009 16.4443C21.9645 16.4443 23.5565 18.0361 23.5565 19.9999C23.5565 21.9635 21.9645 23.5555 20.0009 23.5555C18.0371 23.5555 16.4453 21.9635 16.4453 19.9999C16.4453 18.0361 18.0371 16.4443 20.0009 16.4443V16.4443Z" fill="white"/>
</svg>
