<svg width="172" height="130" viewBox="0 0 172 130" fill="none" xmlns="http://www.w3.org/2000/svg">
<path d="M-271.498 152.316C-196.247 302.889 4.05182 340.764 121.555 217.574C149.124 187.435 165.481 146.854 156.86 106.15C145.368 48.3056 88.3033 4.21218 29.0472 14.1203C-40.3257 24.6575 -72.9586 79.9788 -77.5151 146.333C-88.9617 283.645 -6.56411 416.321 107.577 488.022C167.333 526.37 235.298 551.038 304.902 564.608C479.862 597.837 659.092 563.192 830.377 523.136C929.028 498.218 1026.41 462.495 1107.19 399.26C1199.93 326.328 1267.64 210.19 1257.62 92.8878C1254.49 57.4809 1245.15 16.4971 1215.09 -4.69497C1187.5 -24.1784 1145.37 -17.9764 1124.06 8.04492C1114.39 19.6898 1109.67 34.8752 1109.78 49.9243C1110.46 96.0974 1147.15 121.603 1191.1 120.273C1361.03 109.214 1464.53 -50.208 1482.21 -207.846" stroke="#00974F" stroke-width="18" stroke-miterlimit="10" stroke-linecap="round"/>
</svg>
