<svg width="87" height="88" viewBox="0 0 87 88" fill="none" xmlns="http://www.w3.org/2000/svg">
<path d="M624.818 1355.16C744.435 1236.72 717.993 1034.6 564.315 961.343C527.084 944.541 483.426 941.648 447.437 962.526C396.056 991.476 371.946 1059.44 399.83 1112.66C431.465 1175.29 494.202 1189.05 558.67 1172.7C692.71 1140.78 793.095 1021.13 825.647 890.329C843.459 821.598 845.715 749.33 836.914 678.963C813.954 502.362 725.171 342.859 633.723 192.591C579.298 106.622 515.001 25.2249 429.738 -31.8219C331.532 -97.2138 200.076 -125.345 91.7413 -79.2623C59.0732 -65.2537 23.0425 -43.6041 12.2744 -8.43964C2.36206 23.8517 21.3851 61.9455 52.7544 74.0899C66.8323 79.6457 82.7323 79.3971 96.9972 74.6013C140.659 59.5662 153.457 16.7482 138.495 -24.5949C75.0206 -182.613 -108.719 -231.267 -264.016 -198.935" stroke="#00974F" stroke-width="18" stroke-miterlimit="10" stroke-linecap="round"/>
</svg>
