<svg width="226" height="224" viewBox="0 0 226 224" fill="none" xmlns="http://www.w3.org/2000/svg">
<mask id="mask0_380_25" style="mask-type:alpha" maskUnits="userSpaceOnUse" x="0" y="0" width="226" height="224">
<rect width="226" height="224" fill="white"/>
</mask>
<g mask="url(#mask0_380_25)">
<path d="M42.9833 -1126.99C-82.0997 -1061.48 -110.671 -892.887 -5.47943 -796.304C20.2376 -773.662 54.5332 -760.591 88.5337 -768.471C136.863 -779.031 172.934 -827.594 163.679 -877.133C153.735 -935.147 106.818 -961.633 51.095 -964.397C-64.249 -971.807 -174.209 -900.585 -232.523 -803.714C-263.732 -752.986 -283.336 -695.591 -293.607 -636.999C-318.685 -489.733 -286.771 -339.968 -250.445 -196.952C-227.973 -114.613 -196.46 -33.5094 -142.137 33.2315C-79.4912 109.851 18.9919 164.781 117.211 154.506C146.857 151.318 181.08 142.83 198.374 117.284C214.275 93.8316 208.401 58.6006 186.238 41.1374C176.317 33.2156 163.506 29.4996 150.887 29.8324C112.173 31.1367 91.3665 62.3199 93.1831 99.1564C105.169 241.498 240.524 325.759 373.014 338.076" stroke="#00974F" stroke-width="28" stroke-miterlimit="10" stroke-linecap="round"/>
</g>
</svg>
