<svg width="254" height="189" viewBox="0 0 254 189" fill="none" xmlns="http://www.w3.org/2000/svg">
<path d="M9.7769 -1305.14C-118.32 -1245.73 -154.987 -1078.72 -54.5756 -977.174C-29.9803 -953.319 3.6451 -938.609 37.986 -944.84C86.7687 -953.058 125.139 -999.824 118.284 -1049.75C111.149 -1108.18 65.5632 -1136.9 10.0386 -1142.34C-104.814 -1155.31 -218.08 -1089.47 -280.997 -995.524C-314.616 -946.36 -336.966 -889.977 -350.05 -831.948C-382.2 -686.063 -357.545 -534.933 -328.158 -390.332C-309.682 -307.005 -282.116 -224.476 -231.076 -155.194C-172.197 -75.6418 -76.4774 -16.0272 22.1233 -21.5538C51.888 -23.309 86.4809 -30.1364 104.987 -54.8186C122 -77.4772 117.832 -112.951 96.5362 -131.462C87.0091 -139.853 74.3922 -144.183 61.7712 -144.459C23.0394 -145.023 0.753797 -114.879 0.791972 -77.9979C5.89961 64.7564 137.034 155.446 268.777 174.138" stroke="#00974F" stroke-width="28" stroke-miterlimit="10" stroke-linecap="round"/>
</svg>
