<svg width="1280" height="673" viewBox="0 0 1280 673" fill="none" xmlns="http://www.w3.org/2000/svg">
<path d="M-41.1496 14.0034C-45.5215 31.4256 -79.9082 178.73 12.4876 303.858C80.8074 396.387 190.804 439.343 288.902 426.162C322.422 421.66 412.106 409.612 453.566 330.187C478.117 283.176 490.768 202.966 443.194 145.106C402.29 95.3471 335.177 84.3792 284.138 103.797C234.687 122.603 211.013 165.865 202.919 181.172C170.677 242.171 181.091 305.079 187.092 336.336C214.973 481.384 335.125 563.61 360.562 581.022C513.617 685.762 703.523 672.189 807.013 609.892C847.39 585.59 882.736 548.042 899.512 501.826C908.245 477.491 912.617 449.984 904.183 425.039C893.831 392.953 859.248 372.413 828.078 381.397C801.414 388.352 780.875 414.824 779.689 443.759C777.39 490.193 814.581 526.531 853.03 542.023C971.461 589.438 1113.35 560.383 1209.09 473.556C1311.83 380.383 1331.68 251.188 1336.56 207.621" stroke="#00974F" stroke-width="28" stroke-miterlimit="10" stroke-linecap="round"/>
</svg>
