<svg width="40" height="40" viewBox="0 0 40 40" fill="none" xmlns="http://www.w3.org/2000/svg">
<circle cx="20" cy="20" r="20" fill="white"/>
<path d="M15.4846 17.416H12.043V28.3911H15.4846V17.416Z" fill="#004524"/>
<path d="M24.7947 17.1782C24.6678 17.1624 24.533 17.1544 24.3982 17.1465C22.4712 17.0672 21.3848 18.2091 21.0041 18.7008C20.901 18.8356 20.8534 18.9149 20.8534 18.9149V17.4478H17.5625V28.423H20.8534H21.0041C21.0041 27.3048 21.0041 26.1946 21.0041 25.0765C21.0041 24.4738 21.0041 23.8711 21.0041 23.2685C21.0041 22.523 20.9486 21.73 21.3213 21.0481C21.6385 20.4771 22.2095 20.1916 22.8518 20.1916C24.755 20.1916 24.7947 21.9124 24.7947 22.071C24.7947 22.079 24.7947 22.0869 24.7947 22.0869V28.4705H28.2363V21.3098C28.2363 18.8594 26.9913 17.4161 24.7947 17.1782Z" fill="#004524"/>
<path d="M13.764 15.9967C14.8676 15.9967 15.7623 15.102 15.7623 13.9984C15.7623 12.8947 14.8676 12 13.764 12C12.6603 12 11.7656 12.8947 11.7656 13.9984C11.7656 15.102 12.6603 15.9967 13.764 15.9967Z" fill="#004524"/>
</svg>
