<svg width="17" height="13" viewBox="0 0 17 13" fill="none" xmlns="http://www.w3.org/2000/svg">
<path d="M11.5 12.5001L10.35 10.7501C12.0833 9.5501 13.1167 8.03343 13.45 6.2001C13.15 6.33343 12.8 6.4001 12.4 6.4001C11.4667 6.4001 10.7 6.1001 10.1 5.5001C9.5 4.9001 9.2 4.13343 9.2 3.2001C9.2 2.23343 9.51667 1.46676 10.15 0.900096C10.7833 0.300096 11.5833 9.59635e-05 12.55 9.59635e-05C13.7167 9.59635e-05 14.6667 0.383429 15.4 1.1501C16.1667 1.91676 16.55 3.01676 16.55 4.4501C16.55 5.98343 16.1 7.5001 15.2 9.0001C14.3333 10.4668 13.1 11.6334 11.5 12.5001ZM2.3 12.5001L1.15 10.7501C2.88333 9.5501 3.91667 8.03343 4.25 6.2001C3.95 6.33343 3.6 6.4001 3.2 6.4001C2.26667 6.4001 1.5 6.1001 0.9 5.5001C0.3 4.9001 1.41561e-07 4.13343 1.41561e-07 3.2001C1.41561e-07 2.23343 0.316667 1.46676 0.95 0.900096C1.58333 0.300096 2.38333 9.59635e-05 3.35 9.59635e-05C4.51667 9.59635e-05 5.46667 0.383429 6.2 1.1501C6.96667 1.91676 7.35 3.01676 7.35 4.4501C7.35 5.98343 6.9 7.5001 6 9.0001C5.13333 10.4668 3.9 11.6334 2.3 12.5001Z" fill="#00974F"/>
</svg>
